<svg viewBox="0 0 400 260" xmlns="http://www.w3.org/2000/svg">
  <defs>
    <linearGradient id="cg" x1="0%" y1="0%" x2="0%" y2="100%">
      <stop offset="0%" stop-color="#E8EAED"/>
      <stop offset="50%" stop-color="#C0C4CB"/>
      <stop offset="100%" stop-color="#8A9099"/>
    </linearGradient>
    <radialGradient id="fg" cx="40%" cy="35%">
      <stop offset="0%" stop-color="#F5F6F8"/>
      <stop offset="100%" stop-color="#C0C4CB"/>
    </radialGradient>
    <linearGradient id="hg" x1="0%" y1="0%" x2="100%" y2="100%">
      <stop offset="0%" stop-color="#D4D8DE"/>
      <stop offset="100%" stop-color="#8A9099"/>
    </linearGradient>
    <linearGradient id="tg" x1="0%" y1="0%" x2="100%" y2="100%">
      <stop offset="0%" stop-color="#F5F6F8"/>
      <stop offset="40%" stop-color="#E8EAED"/>
      <stop offset="100%" stop-color="#C0C4CB"/>
    </linearGradient>
  </defs>

  <!-- Caller silhouette - centered horizontally, safe padding -->
  <g transform="translate(145, 8) scale(1.15)">
    <path d="M 28 18 Q 20 15 16 25 Q 13 35 15 50 Q 17 60 25 68 Q 28 70 30 65 Q 25 55 25 40 Q 25 28 28 18 Z" fill="url(#fg)" opacity="0.9"/>
    <ellipse cx="38" cy="20" rx="22" ry="16" fill="url(#fg)"/>
    <circle cx="40" cy="40" r="24" fill="url(#fg)"/>
    <path d="M 52 28 Q 68 22 72 35 Q 75 48 72 60 Q 68 70 58 72 Q 56 70 57 65 Q 62 58 62 42 Q 62 32 52 28 Z" fill="url(#fg)" opacity="0.9"/>
    <rect x="33" y="60" width="14" height="16" rx="3" fill="url(#cg)"/>
    <path d="M 22 72 Q 18 78 14 90 Q 16 96 40 100 Q 64 96 66 90 Q 62 78 58 72 Z" fill="url(#fg)" stroke="url(#cg)" stroke-width="0.5"/>
    <ellipse cx="66" cy="40" rx="5" ry="7" fill="url(#fg)" stroke="url(#cg)" stroke-width="0.5"/>
    <path d="M 64 30 Q 72 20 82 24 Q 88 28 86 40" fill="none" stroke="url(#hg)" stroke-width="4" stroke-linecap="round"/>
    <circle cx="64" cy="38" r="9" fill="none" stroke="url(#hg)" stroke-width="3.5"/>
    <circle cx="64" cy="38" r="5.5" fill="none" stroke="url(#hg)" stroke-width="2" opacity="0.6"/>
    <circle cx="86" cy="36" r="8" fill="none" stroke="url(#hg)" stroke-width="3.5"/>
    <circle cx="86" cy="36" r="5" fill="none" stroke="url(#hg)" stroke-width="2" opacity="0.6"/>
    <path d="M 70 44 Q 82 50 86 62" fill="none" stroke="url(#hg)" stroke-width="3.5" stroke-linecap="round"/>
    <circle cx="86" cy="62" r="4" fill="url(#hg)"/>
    <circle cx="86" cy="62" r="2" fill="url(#cg)" opacity="0.5"/>
  </g>

  <!-- CallCoach title - centered -->
  <text x="200" y="185" text-anchor="middle" font-family="'Playfair Display', Georgia, serif" font-weight="900" font-size="48" fill="url(#tg)" letter-spacing="-1">CallCoach</text>

  <!-- Subtitle - centered -->
  <text x="200" y="215" text-anchor="middle" font-family="'Inter', sans-serif" font-weight="600" font-size="13" fill="#8A9099" letter-spacing="4">SKIN BUSINESS ACCELERATOR</text>

  <!-- Tagline - centered -->
  <text x="200" y="240" text-anchor="middle" font-family="'Inter', sans-serif" font-weight="400" font-size="11" fill="#64748B" letter-spacing="2.5">AI SALES TRAINING &amp; CRM</text>
</svg>
